/* XPM */
static char *_473_29ec854f7a2e2fd10309e7d32b49603652d40d9022b42631b6491f86acf918c9[] = {
/* columns rows colors chars-per-pixel */
"32 32 66 1 ",
"  c #070702",
". c #06060B",
"X c gray3",
"o c #10100D",
"O c #040415",
"+ c #0E0E16",
"@ c #04041B",
"# c #0E0E1B",
"$ c #151516",
"% c #11111C",
"& c #030323",
"* c #0E0E21",
"= c #03032C",
"- c #0B0B2D",
"; c #151524",
": c #13132D",
"> c #18182E",
", c #010133",
"< c #0C0C34",
"1 c #01013B",
"2 c #151530",
"3 c #181830",
"4 c #262635",
"5 c #020243",
"6 c #0B0B43",
"7 c #01014B",
"8 c #0E0E4E",
"9 c #151541",
"0 c #000054",
"q c #0E0E56",
"w c #00005C",
"e c #0E0E5B",
"r c #111154",
"t c #11115D",
"y c #28284C",
"u c #393955",
"i c #34345B",
"p c #000063",
"a c #0E0E63",
"s c #00006C",
"d c #0E0E6B",
"f c #101062",
"g c #101069",
"h c #000074",
"j c #0F0F72",
"k c #00007B",
"l c #282866",
"z c #26266B",
"x c #28286A",
"c c #383862",
"v c #252574",
"b c #000084",
"n c #00008C",
"m c #000094",
"M c #00009B",
"N c #242483",
"B c #0000A4",
"V c #0808A0",
"C c #0101AB",
"Z c #0000B3",
"A c #0000BC",
"S c #0000C3",
"D c #0000CC",
"F c #0000D3",
"G c #0000DB",
"H c #0C0CDD",
/* pixels */
"tMnnmnmmmnb4MCCCBCBBCCBCCM4mmmMt",
"0BmMmmnnbbp#Mmbbpsnhhbknms#CCBC5",
"0nCBhmmkss7+ew00070ww-o##$$CCMb,",
"wBCCnnBnsp7#ZFAZZCZZS7rCms;VMbb,",
"0mmnnbshhk1+BABBBMnkn,qCnw;MMBb&",
"7mbbbbwpwp7+VCBBACskh@qMn0#Bnbk&",
"0Mkbsssw077+CAMMmmnbp&qMhw*np0w&",
",0111==&==&%CAbMmbbhpOqCn0+;#+##",
"Bnmmnnm7nBm0nBMMBbk0wOqMbp#MkpAC",
"ZBCmnnn0BAM5BAZmbks0p@ebw7%CheSZ",
"MmZbbhh5Mmn15551&&&=@X:1=&O7&aSB",
"Bnmmbsh1Mns=:arqeqaqaaf;qZBB6fZn",
"CbMmnkp1Mbk&dDSGFDAZAAB,aFSC,fSM",
"BnBBkkp,,&=XaAADAFMkbbh@aSBM=fSC",
"mmBmsww&:aa>fAZmCBBbbsp&eFMM&aAC",
"mnmhpsw@dAC5eSCMBbmnsphOaSMC&aCn",
"MmkswspOeCn&aZnCmhssw5pOeSMB&aBk",
"bbhk00p@aAk&aABMskbspppOaSnk&aZn",
"bkhsw0w&eCb=275=@==&@OO aAkn&aZb",
"kkpw111.aCb=2qqeqqqqqea3tAMs@qmh",
"#%-1577#fBh@aGDAASCCMMZ1qABh@<w=",
"tZZAAASaeZb=qDAAZBkkmnn&eAsp@qM1",
"dSSSBBZ0*5&XeSCFAMbsshb=8k00O8b=",
"jZBZmCA72ae>tSZMZBnbpp0&$*##%9q=",
"jSBMBnB7aSZ1rSCBAZnkpppOtZCCCBV0",
"jZVSBhM7eZm1tABBCACk0wp&eSDABMM1",
"jZSHmmh,aAM=qAMkkMbkhw0OaABZMbh,",
"dACmmbp&fAm=qACmhkssMhp@aZmMhss=",
"dAMbbBn*aAb=qAMnBkpppp0OaSmZmbb@",
"jMkksbk&aBs&qZMBkhww557.dAMMnkh&",
"dMhkssk<tMk<tABnssp0hsp-gAMbhks1",
"izxxxlvuuvzucNzzzxxxxxzucvlzxxzy"
};
