/* XPM */
static char *_155_c059d2d4cd480c8835dc7fb92bd69fd55f20e00ce685b157cc348410e1ac0122[] = {
/* columns rows colors chars-per-pixel */
"32 32 118 2 ",
"   c #1F1F1F",
".  c #37290E",
"X  c #3C2B0D",
"o  c #352913",
"O  c #3C2D12",
"+  c #3F2F19",
"@  c #3F3014",
"#  c #3F3118",
"$  c #252525",
"%  c #2B2B2B",
"&  c #3D3322",
"*  c #30302F",
"=  c #3D372B",
"-  c #353535",
";  c #383736",
":  c #3E3A30",
">  c #343538",
",  c #3C3C3C",
"<  c #4E330E",
"1  c #55340D",
"2  c #443415",
"3  c #4B3614",
"4  c #473817",
"5  c #4A3817",
"6  c #453619",
"7  c #4A3719",
"8  c #473818",
"9  c #4A3919",
"0  c #523713",
"q  c #533915",
"w  c #533B1B",
"e  c #5A3E1D",
"r  c #673F17",
"t  c #413623",
"y  c #463A25",
"u  c #4C3C23",
"i  c #463B2B",
"p  c #4C3F2A",
"a  c #523F25",
"s  c #5B3F20",
"d  c #423C31",
"f  c #493F31",
"g  c #413F3E",
"h  c #5D401E",
"j  c #62411E",
"k  c #4C402B",
"l  c #514125",
"z  c #5C4020",
"x  c #54412A",
"c  c #4A4235",
"v  c #40403F",
"b  c #4B4539",
"n  c #4F4838",
"m  c #5E4C36",
"M  c #50473B",
"N  c #544B3C",
"B  c #5B4D3C",
"V  c #634423",
"C  c #6B4623",
"Z  c #6E4826",
"A  c #60482D",
"S  c #714B2B",
"D  c #655139",
"F  c #69523F",
"G  c #434343",
"H  c #4D4943",
"J  c #46484A",
"K  c #4B4B4B",
"L  c #534D44",
"P  c #504F4F",
"I  c #545047",
"U  c #5D5242",
"Y  c #52514D",
"T  c #5A574E",
"R  c #4C4E51",
"E  c #4F5050",
"W  c #545454",
"Q  c #595654",
"!  c #5C5955",
"~  c #545659",
"^  c #575859",
"/  c #5B5B5B",
"(  c #645544",
")  c #695644",
"_  c #615748",
"`  c #655A4A",
"'  c #6C5B49",
"]  c #635D54",
"[  c #635F5A",
"{  c #6D655D",
"}  c #736251",
"|  c #75675B",
" . c #5D5F60",
".. c #5E6064",
"X. c #636363",
"o. c #6B6764",
"O. c #6C6964",
"+. c #636669",
"@. c #66696C",
"#. c #6C6C6B",
"$. c #716E6B",
"%. c #72716F",
"&. c #6F6F70",
"*. c #6F7274",
"=. c #737475",
"-. c #797775",
";. c #767779",
":. c #76797D",
">. c #7B7C7C",
",. c #827F7C",
"<. c #7C7D80",
"1. c #7E8185",
"2. c #828383",
"3. c #8A8A8A",
"4. c #8E8F92",
"5. c #919192",
"6. c #969798",
"7. c gray60",
/* pixels */
">.] 3 V z e z s e s s 7 w z 0 p @.-.$.=.; % % K o.^ Y W ~  .o.#.",
"@.=.L h V h z e e s z 6 3 q P X.B a a N / - J +. ./ / / / / / / ",
"K #.=.w z z z e s z 7 2 M &.o.a 2 4 2 . T 2.@./ W W W W Y E E E ",
"K K #.T 5 z z z e 3 i / *.( 3 2 4 7 6 . N 5./ K K K K K K K K K ",
"K K P ;.I w q 7 y ! =.{ x 3 8 8 2 6 # . L :.K K K K K K K K K K ",
"K K J %.;.L f L #.>.U 7 3 8 7 8 2 3 2 o ^ ;.Y K K K K K K K K K ",
"P G K #.^ W X.6.>.x q 5 w 4 4 8 # 4 2 o o.=.K K K K K K K G J K ",
"G K ;.X.P W J #.` 0 9 4 3 4 6 8 + 4 O = :.=.K K K K K K K J H K ",
"K X.o. .W W G ~ B 3 8 8 4 8 4 3 O 7 . n | X.K K K K K K K R K , ",
"/ a y X.~ G H / ] w 8 8 8 7 8 6 + O i A 1 I K K K K K K G v - J ",
"a 7 2 n X.G K Y  .N 3 8 8 8 3 . o H =._ n O.=.G , v v , ; - W +.",
"q 7 6 2 #.~ K K W o.2 8 8 8 O : ^ ~ K R R -.7.>.W ; , v ; Q @.x ",
"6 7 6 O ! =.G G ~ 1.b . O . H =.^ G ; ; , G >.=.#.W - - W =.B 3 ",
"w 5 2 2 c >./ W #.} [ : d ^ @.W v G , g , v o.R H #.@.&.=.L 4 4 ",
"7 5 6 O f ;.>.{ V e s [ ;.#.W G v G , , ; R @.R J ~ <.<.[ 7 3 5 ",
"6 8 6 O c >.+.O.D q 1 ` =.W G v v G ; g ; [ } ) ) ( ( ( ! a 7 w ",
"3 8 O t / o.W / -.` n #.W K K G v v ; ; G ` r r e j q q ) l 3 4 ",
"8 2 t / #.~ ~ Y ^ :.4.#.; G K , v v > ; ~ ) j s s s a q B u 4 6 ",
"4 t / =.+.W W W Q W 3.:.; K K G v v * G $.S V s s z w e U H 2 3 ",
"t / -.#.W ~ W W W K / 2.v G Q G v v % ~ | C V s s s s q U <.L @ ",
"X.3.,.~ Q W ~ W ~ K K +.~ * v G v , * +.( C C s z e e e N  .~ ~ ",
"~ 5.{ P / ~ Y ~ Q K H W ~ G ; v G > v $.V C Z e z e z q N % % ; ",
"  / ~ E ^ ~ W Q W K G ~ G =.+.% , > P >.m e C e e s z e N > % $ ",
"G X.K ~ Q W W ~ K K G G K %.{ ~ > - #.X.^ m e j z w w w L %   $ ",
"=.:.+.L ~ W W W K K - J / u X N / #.X.% % / [ w h z 7 H #.G - ; ",
"%.} ,.@.G Q W W K G G / p 3 6 X p ;.; % % % X.&.x 8 L  .^ / ^ =.",
"V q V ' ^ G R K , K ~ a 2 8 6 # p P % $ $ % % X.&.~ =.Y P W K O.",
"e z s e s N v , ~ L q 4 3 6 2 + K > % % $ $ % % / 3.+.K ~ P K _ ",
"z w z w w 0 i ~ L q w 7 3 2 O L J % $ % %   $ % % [ X.W Q K P V ",
"s s s w 2 p =./ 4 5 w 8 6 2 i W - % % % % $   % % % ^ W K J B r ",
"e s s 3 i X.@.#.y q w 2 7 2 ^ , % * % % % $   $ $ % $ W K T V s ",
"e V w y &.K ; / L 3 9 4 2 H K $ - * % $ % %   $ $ $ $ X.@._ e s "
};
