/* XPM */
static char *_8686_c9f4e150ff8d7376986ef1e102c3c0cb7367e318d3e8f77286b4781db2448c93[] = {
/* columns rows colors chars-per-pixel */
"32 32 85 1 ",
"  c #380F0F",
". c #2D1515",
"X c #261919",
"o c #2D1A1A",
"O c #341414",
"+ c #3C1515",
"@ c #341919",
"# c #3D1B1B",
"$ c #1F3232",
"% c #352626",
"& c #392727",
"* c #342B2B",
"= c #3B2C2C",
"- c #273939",
"; c #2B3C3C",
": c gray21",
"> c #3E3333",
", c #3B3A3A",
"< c #450000",
"1 c #4A0101",
"2 c #540101",
"3 c #5C0000",
"4 c #411616",
"5 c #431919",
"6 c #5B1F1F",
"7 c #630101",
"8 c #6B0101",
"9 c #740000",
"0 c #7C0000",
"q c #651E1E",
"w c #412E2E",
"e c #552222",
"r c #5C2222",
"t c #443333",
"y c #493636",
"u c #453C3C",
"i c #4B3B3B",
"p c #513F3F",
"a c #6D2525",
"s c #7B2424",
"d c #7D2C2C",
"f c #643C3C",
"g c #2E4242",
"h c #314242",
"j c #364848",
"k c #3A4B4B",
"l c #434444",
"z c #4C4141",
"x c #444C4C",
"c c #4C4B4B",
"v c #524343",
"b c #5A4545",
"n c #534C4C",
"m c #584C4C",
"M c #4A5151",
"N c #505757",
"B c #840000",
"V c #8B0000",
"C c #8A0808",
"Z c #930000",
"A c #9C0404",
"S c #9B0808",
"D c #871E1E",
"F c #921F1F",
"G c #A30505",
"H c #AC0505",
"J c #A50808",
"K c #AC0909",
"L c #B20606",
"P c #BA0404",
"I c #B50A0A",
"U c #BB0B0B",
"Y c #842424",
"T c #8C2323",
"R c #8E2828",
"E c #952525",
"W c #932D2D",
"Q c #9B2E2E",
"! c #973030",
"~ c #9D3232",
"^ c #A22C2C",
"/ c #C40202",
"( c #CA0202",
") c #CC0A0A",
"_ c #D00A0A",
/* pixels */
"uiiiziuliiiipvvpiizhvvvipitiviiu",
"E(PLUPrn(HLLLPLHL/az)(/ULLPHHHHq",
"EGVZZBOmPAZVVZBVVBOcHBVBVZAVZVB4",
"TGVZV0OcLAVZBVBVVB+uGBVB0ZVVZVV+",
"a02212@lC323722212.l03733323233O",
"v=>t=&=iu>y=&t>&=tyviiivit=:tttt",
"LHGGGSHBkW/LHHKHKSHAGKGKILec_HLL",
"VAB0V0Z2-TAVVBBBBV0VB0ZBZ0@vHZZV",
"ZZBBZVZ3-RAZV000Z0BB0BVBZB.uHZZV",
"7227327<hd0388777777773383.lB327",
"u=>>=t*%ivy>>=,iyt=&=y=&ttybi=y,",
"^(LLHHGLGGHSLBk~(UHLLHASAGJSASAr",
"DGZ00ZVABBV0Z3g~HV0BVBBB0VZVZV8O",
"YZ09BBBV0VVBV3g~GBVVVB0B0BBZVB0+",
"Y037378773277<-d077737737327337O",
"biy>w=,viyi>==yvy>yy:&wpy=wttytt",
"KKLLHecUJHHGGSAGSGGCkRPJKGHSGGJS",
"VZZZB@vABVVVZ00BBBZ7j~ZBVVZBBVV0",
"ZZAZB#nGVVBVZV0BVVA8jQGZVAZZVAVV",
"27372@c097888737788<;d0809988888",
">t=wt=vy%wtii&&t,>wwpbttpbt=tyt>",
"QPGHHAAZSSHAGGACjW/SGGGSASSSGSA6",
"TZ00BV0BB0000BB3-TA80800000VBB0+",
"FGVBVZVVV0BVBZZ7-EA0BBV00BVZZVV+",
"s077887833233372-d9777777377773@",
"pttytyvu=:u=&wy=izyytwtz,ty&X=>y",
"GHGSSHSJCkW(HGJGAAGASSAemUGGASSS",
"B0B0B0903-TZB89BBB00909@mS9VBB09",
"B00BV09V3;YBBBB90B90099@nG0VV09B",
"BB90000B7;RB0099000B009OiA89VB00",
"+5++555+O,f5@5+54+5+  +Xze@5++++",
"xMxxMMMxcNNNMMMMMxMxlkxxcMccxkxc"
};
